<svg version="1.0" xmlns="http://www.w3.org/2000/svg" width="49.3333333" height="85.3333333" viewBox="0 0 412 439"><path d="M39.8 2.9C21.2 9 16.7 16 11.5 46.3c-7.8 45-11.4 81.3-9.6 94.8 4.9 36.5 23.3 63.4 54 78.8l6.3 3.2-.6 7.2c-.3 4-2.7 45.9-5.2 93.2l-4.6 86 2.1 5.6c4.4 11.5 12 18.6 23.1 21.5 9.2 2.3 64.7 1.7 70.4-.9 12.7-5.7 20.6-17 20.6-29.6 0-3.6-2.1-46.2-4.7-94.5-4-76-4.5-88.1-3.2-88.8 21.6-12.7 27.4-17.2 36.8-28.8 10.7-13.1 17.5-28.6 20.7-47 2.8-16 .3-47.8-7.1-92-5.7-34.5-7.2-38.3-17.1-45.6-7.1-5.1-14.1-7.6-23.6-8.2-9.4-.6-16.3.9-24.9 5.6l-6.7 3.5-2.8-1.9C121.6-1 102.8-1.5 86.9 7.3l-5.6 3-3.2-2.2C69.2 1.7 50.9-.8 39.8 2.9zM58 28.1c8.6 2 8-2.6 8 57 0 29.6.4 53.8.9 55.2 1.1 3 6.7 5.7 11.5 5.7 5 0 10.4-2.4 11.6-5.2.5-1.3 2.3-25.8 4-54.6 1.7-28.8 3.3-52.9 3.6-53.7.9-2.3 7.6-4.8 12.9-4.8 4.8 0 10.6 2.1 12 4.3.3.5 2.1 25 3.9 54.4 2.4 38.7 3.7 54 4.6 55.1 4.9 6 18.7 5.7 21.9-.3.8-1.4 1.1-18.9 1.1-54.6 0-28.8.3-53.2.6-54.1 2.4-6 22.4-6 24.8 0 .3.9 2.2 11 4 22.3 11.6 69.3 11.7 89 .5 111.8-4.8 9.8-15.1 21.4-24.7 27.8-6.5 4.3-18.6 9.7-24.8 11-3 .7-3.1.8-2.7 5.9.2 2.9 2.6 47.9 5.3 100.1 4.6 86.1 4.9 95.1 3.5 97.3L139 411H81l-1.2-2.6c-1-2.1-.2-21.5 3.6-94.3 2.6-50.4 5-95.3 5.3-99.7l.6-8.2-5.9-1.7c-24.1-7-43.2-24.7-50.9-47.5-6.6-19.4-5.7-39.7 4.6-104 3.8-23.7 3.8-23.7 15.9-25.9.3 0 2.5.4 5 1z"/><path d="M362.6 2.5c-18.7 3.9-40.5 15.7-58.5 31.6-27.7 24.4-48.8 60.8-54.7 94.1-2.4 13.8-2.1 34.8.6 47.3 6.7 30.6 24.7 58.6 52.3 81.5 5 4.1 5.4 4.8 5 8-1.9 17.4-11.5 133.3-11.5 139.3 0 6.5.5 8.7 3 14 4.8 10.3 13 16.6 24.2 18.7 6.8 1.3 53.2 1.3 60 0 11.1-2.1 19.7-8.7 24.7-18.8l2.8-5.7v-386l-2.6-5.5c-3.7-7.9-8.1-12.5-15.4-16.1-5.2-2.6-7.9-3.2-14.7-3.5-4.8-.2-11.2.3-15.2 1.1zm19.7 27.2c1.6 1.5 1.7 11.8 1.7 189.9v188.3l-2.2 1.5c-1.9 1.4-6.4 1.6-28.9 1.6-24.5 0-26.9-.2-29-1.9l-2.3-1.8 6.7-77.9c3.7-42.8 6.7-78.6 6.7-79.4 0-.8-3-3.8-6.7-6.5-10.3-7.8-26.8-23.9-33.7-33.2-8.3-11-14-22.5-17.3-34.8-4.9-18.3-3.5-42.5 3.8-63.2 6-16.9 17.1-34.5 30.8-48.6 19.5-20.1 38.4-31.9 56.6-35.3 7.7-1.4 11.1-1.1 13.8 1.3z"/></svg>